<?xml version="1.0" encoding="iso-8859-1"?>
<!-- Generator: Adobe Illustrator 19.0.0, SVG Export Plug-In . SVG Version: 6.00 Build 0)  -->
<svg version="1.1" id="Capa_1" xmlns="http://www.w3.org/2000/svg" xmlns:xlink="http://www.w3.org/1999/xlink" x="0px" y="0px"
	 viewBox="0 0 511.998 511.998" style="enable-background:new 0 0 511.998 511.998;" xml:space="preserve">
<path style="fill:#E7E8E3;" d="M503.916,397.661c0,16.188-13.122,29.311-29.309,29.311H37.393
	c-16.188,0-29.309-13.124-29.309-29.311V114.336c0-16.188,13.122-29.31,29.309-29.31h437.212c16.188,0,29.309,13.123,29.309,29.31
	v283.326L503.916,397.661L503.916,397.661z"/>
<g>
	<path style="fill:#202121;" d="M186.584,244.128c6.507,0,11.03-2.315,11.03-8.824c0-6.949-4.854-9.266-11.03-9.266h-16.435v18.088
		h16.435V244.128z"/>
	<path style="fill:#202121;" d="M194.416,205.302c0-5.735-4.082-7.61-8.382-7.61h-15.885v15.11h15.885
		C189.562,212.802,194.416,210.927,194.416,205.302z"/>
	<polygon style="fill:#202121;" points="261.138,203.647 260.917,203.647 251.983,231.224 269.851,231.224 	"/>
	<path style="fill:#202121;" d="M129.642,288.299h-11.24v12.229h11.847c4.253,0,6.532-2.278,6.532-6.378
		C136.782,290.125,133.591,288.299,129.642,288.299z"/>
	<polygon style="fill:#202121;" points="180.913,292.021 174.76,311.012 187.065,311.012 181.064,292.021 	"/>
	<path style="fill:#202121;" d="M443.35,288.299h-11.241v12.229h11.85c4.252,0,6.53-2.278,6.53-6.378
		C450.489,290.125,447.3,288.299,443.35,288.299z"/>
	<path style="fill:#202121;" d="M480.597,323.683c-0.14-0.995-0.269-2.554-0.387-4.657c-0.025-0.448-0.047-0.832-0.068-1.135
		c-0.008-0.107-0.016-0.212-0.025-0.319c-0.387-4.411-1.278-8.12-2.493-11.241c2.044-4.231,3.164-9.025,3.164-14.082
		c0-7.423-2.33-13.946-6.452-19.099c1.688-1.36,3.113-3.068,4.16-5.053c2.797-5.31,2.422-11.732-0.971-16.68l-25.398-37.028
		l20.084-21.379c2.794-2.906,4.511-6.853,4.511-11.203c0-8.929-7.237-16.168-16.166-16.168h-0.005H435.07
		c-4.718,0-9.201,2.061-12.273,5.642l-0.71,0.829c-2.949-3.93-7.648-6.471-12.938-6.471h-20.514c-2.512,0-4.88,0.59-7.001,1.611
		c-2.12-1.022-4.489-1.611-7.001-1.611h-19.304c-5.832,0-10.944,3.088-13.788,7.72c-2.931-4.784-8.147-7.72-13.785-7.72h-21.069
		c-8.929,0-16.168,7.239-16.168,16.168v4.676l-3.866-10.339c-2.363-6.318-8.399-10.505-15.144-10.505h-20.845
		c-6.745,0-12.781,4.188-15.144,10.505l-5.733,15.331c-2.309-8.461-7.62-15.332-15.538-19.839
		c-7.002-3.985-15.956-6.006-26.614-6.006h-0.001c-0.427,0-0.856,0.003-1.281,0.01h-36.716c-2.224,0-4.341,0.449-6.269,1.261
		c-1.934-0.818-4.06-1.27-6.292-1.27H51.558c-8.929,0-16.168,7.239-16.168,16.168v17.123c0,2.451,0.562,4.766,1.538,6.849
		c-0.977,2.081-1.538,4.397-1.538,6.849v17.123c0,2.451,0.562,4.766,1.538,6.849c-0.977,2.081-1.538,4.397-1.538,6.849v17.122
		c0,3.001,0.832,5.802,2.257,8.21c-1.425,2.409-2.257,5.209-2.257,8.21v12.153c0,8.929,7.239,16.168,16.168,16.168h0.012v25.911
		c0,8.929,7.239,16.168,16.168,16.168h14.127c4.354,0,8.298-1.729,11.205-4.528c2.907,2.798,6.851,4.528,11.205,4.528h14.129
		c3.822,0,7.334-1.326,10.101-3.543c2.831,2.265,6.381,3.543,10.101,3.543h13.979c0.205,0,0.407-0.015,0.612-0.023
		c0.125,0.003,0.248,0.023,0.373,0.023h14.51c5.124,0,9.831-2.416,12.836-6.335c3.002,3.918,7.708,6.335,12.834,6.335h14.737
		c0.677,0,1.347-0.045,2.009-0.127c0.638,0.077,1.284,0.127,1.942,0.127h13.293c3.548,0,6.83-1.144,9.495-3.081
		c2.716,1.969,6.024,3.081,9.495,3.081h14.507c3.609,0,6.931-1.196,9.62-3.196c5.808,2.799,12.717,4.335,20.457,4.335
		c7.793,0,14.868-1.458,20.787-4.204c2.659,1.92,5.914,3.064,9.445,3.064h14.129c8.746,0,15.853-6.95,16.141-15.626
		c0.288,8.676,7.394,15.626,16.141,15.626h43.98c1.393,0,2.737-0.195,4.026-0.526c1.289,0.331,2.633,0.526,4.026,0.526h14.128
		c3.823,0,7.335-1.326,10.103-3.544c2.831,2.265,6.381,3.544,10.102,3.544h13.976c6.481,0,12.335-3.871,14.876-9.834
		C483.101,333.006,482.826,327.915,480.597,323.683z M409.147,181.807v30.223l25.921-30.223h25.479l-29.119,30.995l32.76,47.759
		H438.71l-21.177-33.088l-8.384,8.825v24.264h-18.347v-78.755H409.147L409.147,181.807z M306.685,181.807h21.069l27.355,48.532
		h0.219v-48.532h17.136v78.754h-18.901l-27.355-49.082h-0.219v49.082h-8.868c0-1.909-0.333-3.827-1.02-5.663l-9.415-25.179
		L306.685,181.807L306.685,181.807L306.685,181.807z M250.661,181.807h20.845l19.011,50.836v27.068
		c-0.354-0.008-0.703-0.037-1.057-0.037c-3.291,0-6.445,0.309-9.435,0.886h-0.467l-4.852-14.117H247.24l-4.964,14.117h-15.48
		c4.222-5.619,7.501-13.505,7.501-24.485c0-2.824-0.305-5.558-0.875-8.176L250.661,181.807z M51.558,215.091h81.907v12.18H51.558
		V215.091z M133.465,245.91v14.651H51.558V245.91H133.465L133.465,245.91z M186.474,181.807c0.384-0.006,0.771-0.01,1.157-0.01
		c13.243,0,27.301,3.786,27.301,19.755c0,7.059-4.192,12.794-10.369,15.882c5.464,1.581,9.557,5.233,11.753,10.054l-10.251,27.41
		c-0.308,0.824-0.52,1.666-0.689,2.515c-5.047,2.245-11.235,3.149-17.911,3.149H153.24V243.44c0-2.451-0.562-4.766-1.538-6.849
		c0.977-2.081,1.538-4.397,1.538-6.849V212.62c0-2.451-0.562-4.766-1.538-6.849c0.977-2.081,1.538-4.397,1.538-6.849V181.81h33.234
		V181.807z M51.558,181.798h81.908c0,0.003,0,0.005,0,0.009v14.643H51.558V181.798z M81.864,331.216H67.738v-42.08h-16.18v-12.153
		h36.546v12.153h-6.24C81.864,289.135,81.864,331.216,81.864,331.216z M129.111,311.467h-10.709v19.748h-14.13v-27.159
		c5.837-2.439,9.94-8.2,9.94-14.921v-12.153h17.709c9.547,0,18.94,4.313,18.985,15.19l-4.012,10.729
		c-1.217,1.245-2.713,2.258-4.489,2.946v0.15c1.092,0.259,2.036,0.701,2.854,1.281l-6.834,18.276
		c-0.35,0.938-0.581,1.899-0.751,2.868c-0.427-2.213-0.562-4.862-0.663-5.864C136.63,317.088,135.72,311.467,129.111,311.467z
		 M193.748,331.216l-3.34-9.724h-18.914l-2.849,8.107c-0.208-2.058-0.785-4.071-1.758-5.919c-0.141-1-0.272-2.568-0.388-4.685
		c-0.024-0.427-0.045-0.792-0.065-1.083c-0.008-0.115-0.017-0.232-0.026-0.347c-0.389-4.405-1.281-8.113-2.495-11.233
		c1.595-3.301,2.619-6.949,2.995-10.794l6.939-18.556h14.356l8.063,21.563v32.671L193.748,331.216L193.748,331.216L193.748,331.216z
		 M225.881,297.417h-0.152v33.8h-1.08c0-1.909-0.333-3.827-1.02-5.663l-11.193-29.932v-18.639h14.507l18.838,33.421h0.153v-33.421
		h9.309c-2.61,4.5-4.057,9.687-4.057,15.343c0,3.813,0.621,7.399,1.836,10.701c-2.23,2.852-3.451,6.391-3.432,10.049
		c0.038,6.86,1.743,12.984,4.82,18.14h-9.691L225.881,297.417z M275.396,329.406v-16.42h4.492c0.304,6.38,4.254,8.429,10.254,8.429
		c4.253,0,8.659-1.518,8.659-5.544c0-4.785-7.747-5.697-15.57-7.901c-2.686-0.763-5.411-1.691-7.834-2.98v-25.824
		c1.959-1.092,4.148-1.894,6.417-2.437h15.085c2.328,0.58,4.527,1.451,6.472,2.637v13.946h-6.314
		c0.229-4.937-4.405-6.532-8.735-6.532c-3.039,0-6.837,1.063-6.837,4.634c0,4.177,7.823,4.936,15.723,7.14
		c2.103,0.592,4.206,1.295,6.164,2.186v28.907c-4.081,1.924-9.051,2.708-14.064,2.708
		C284.211,332.355,279.358,331.439,275.396,329.406z M333.668,310.325v20.891h-8.922c2.843-4.929,4.351-10.688,4.351-17.016
		c0-5.111-1.119-9.821-3.292-13.99c1.023-2.168,1.56-4.557,1.546-7c-0.038-5.96-1.518-11.458-4.272-16.228h26.702v11.318h-16.113
		v11.09h16.113v10.935L333.668,310.325L333.668,310.325z M365.95,331.216v-8.164c3.779-2.96,6.217-7.554,6.217-12.726V299.39
		c0-0.34-0.011-0.677-0.031-1.011c2.206-2.764,3.526-6.267,3.526-10.079v-11.317h26.152v11.317h-21.737v9.495h21.736v10.937h-21.736
		v10.332h21.736v12.152H365.95L365.95,331.216z M452.315,331.216c-1.217-1.823-1.443-7.14-1.596-8.659
		c-0.379-5.469-1.289-11.089-7.899-11.089h-10.709v19.748H426.1v-12.152c0-3.666-1.221-7.048-3.277-9.76
		c0.006-0.191,0.01-0.38,0.01-0.571v-10.937c0-0.273-0.006-0.543-0.02-0.813c1.6-2.508,2.527-5.486,2.527-8.682v-11.317h20.292
		c9.571,0,18.988,4.331,18.988,15.266c0,5.85-2.81,11.394-8.506,13.599v0.15c5.773,1.369,7.444,7.823,7.898,12.99
		c0.154,2.278,0.38,10.253,2.28,12.23h-13.976v-0.003L452.315,331.216L452.315,331.216z"/>
	<path style="fill:#202121;" d="M474.607,435.057H37.393C16.774,435.057,0,418.282,0,397.661V114.336
		c0-20.62,16.774-37.394,37.393-37.394h437.212c20.619,0,37.393,16.775,37.393,37.394v31.459c0,4.466-3.62,8.084-8.084,8.084
		c-4.466,0-8.084-3.618-8.084-8.084v-31.459c0-11.704-9.522-21.226-21.225-21.226H37.393c-11.703,0-21.225,9.522-21.225,21.226
		v283.326c0,11.705,9.522,21.227,21.225,21.227h437.212c11.703,0,21.225-9.522,21.225-21.227V172.025
		c0-4.466,3.618-8.084,8.084-8.084c4.465,0,8.084,3.618,8.084,8.084v225.637C512,418.282,495.226,435.057,474.607,435.057z"/>
</g>
<g style="opacity:0.15;">
	<path style="fill:#202121;" d="M28.922,397.661V114.336c0-16.188,13.124-29.31,29.311-29.31h-20.84
		c-16.187,0-29.309,13.123-29.309,29.31v283.326c0,16.188,13.122,29.311,29.309,29.311h20.84
		C42.047,426.973,28.922,413.849,28.922,397.661z"/>
</g>
<g>
	<path style="fill:#006E90;" d="M149.633,181.807h36.84c13.567-0.22,28.457,3.31,28.457,19.745c0,7.059-4.192,12.794-10.369,15.882
		c8.382,2.426,13.569,9.708,13.569,18.641c0,18.75-13.788,24.485-30.665,24.485h-37.832V181.807z M170.148,212.802h15.885
		c3.528,0,8.382-1.876,8.382-7.5c0-5.735-4.082-7.61-8.382-7.61h-15.885V212.802z M170.148,244.128h16.436
		c6.507,0,11.03-2.315,11.03-8.824c0-6.949-4.854-9.266-11.03-9.266h-16.435v18.089h-0.001V244.128z"/>
	<path style="fill:#006E90;" d="M250.661,181.807h20.845l29.45,78.754h-21.399l-4.852-14.117H247.24l-4.964,14.117h-21.067
		L250.661,181.807z M251.983,231.224h17.867l-8.713-27.575h-0.22L251.983,231.224z"/>
	<path style="fill:#006E90;" d="M306.685,181.807h21.069l27.355,48.532h0.219v-48.532h19.304v78.754h-21.069l-27.355-49.082h-0.219
		v49.082h-19.304V181.807z"/>
	<path style="fill:#006E90;" d="M388.633,181.807h20.514v30.223l25.921-30.223h25.479l-29.119,30.995l32.76,47.759H438.71
		l-21.177-33.088l-8.384,8.824v24.264h-20.514v-78.754H388.633L388.633,181.807z"/>
</g>
<g>
	<path style="fill:#66CDE7;" d="M98.044,289.135h-16.18v42.08H67.738v-42.08h-16.18v-12.153h46.486V289.135z"/>
	<path style="fill:#66CDE7;" d="M104.272,276.983h27.648c9.571,0,18.989,4.331,18.989,15.266c0,5.85-2.81,11.394-8.507,13.599v0.15
		c5.772,1.369,7.443,7.823,7.899,12.99c0.152,2.278,0.382,10.253,2.28,12.23h-13.979c-1.214-1.823-1.441-7.14-1.594-8.659
		c-0.382-5.469-1.29-11.089-7.899-11.089h-10.71v19.748h-14.127C104.272,331.217,104.272,276.983,104.272,276.983z M118.402,300.527
		h11.847c4.253,0,6.533-2.278,6.533-6.378c0-4.025-3.191-5.851-7.14-5.851h-11.24C118.402,288.299,118.402,300.527,118.402,300.527z
		"/>
	<path style="fill:#66CDE7;" d="M173.848,276.983h14.356l20.28,54.234h-14.737l-3.34-9.724h-18.914l-3.417,9.724h-14.51
		L173.848,276.983z M174.76,311.012h12.305l-6.001-18.991h-0.152L174.76,311.012z"/>
	<path style="fill:#66CDE7;" d="M212.437,276.983h14.507l18.838,33.421h0.153v-33.421h13.293v54.234h-14.507l-18.838-33.801h-0.152
		v33.801h-13.293v-54.234H212.437z"/>
	<path style="fill:#66CDE7;" d="M279.887,312.987c0.304,6.38,4.254,8.429,10.254,8.429c4.253,0,8.659-1.518,8.659-5.544
		c0-4.786-7.747-5.697-15.57-7.901c-7.748-2.202-15.875-5.694-15.875-15.647c0-11.848,11.925-16.482,22.104-16.482
		c10.785,0,21.646,5.24,21.724,17.469h-14.128c0.229-4.937-4.405-6.532-8.736-6.532c-3.039,0-6.837,1.063-6.837,4.634
		c0,4.177,7.823,4.936,15.723,7.14c7.824,2.202,15.724,5.848,15.724,15.646c0,13.75-11.698,18.156-23.624,18.156
		c-12.456,0-23.469-5.47-23.547-19.37h14.129V312.987z"/>
	<path style="fill:#66CDE7;" d="M319.538,276.983h39.954v11.317h-25.825v11.09h22.332v10.935h-22.332v20.891h-14.129V276.983z"/>
	<path style="fill:#66CDE7;" d="M365.95,276.983h43.219v11.317h-29.092v9.495h26.585v10.937h-26.585v10.332h29.852v12.153h-43.98
		v-54.234L365.95,276.983L365.95,276.983z"/>
	<path style="fill:#66CDE7;" d="M417.981,276.983h27.648c9.571,0,18.988,4.331,18.988,15.266c0,5.85-2.81,11.394-8.506,13.599v0.15
		c5.772,1.369,7.444,7.823,7.898,12.99c0.155,2.278,0.38,10.253,2.28,12.23h-13.976c-1.217-1.823-1.443-7.14-1.596-8.659
		c-0.379-5.469-1.289-11.089-7.899-11.089h-10.709v19.748h-14.128L417.981,276.983L417.981,276.983z M432.11,300.527h11.85
		c4.252,0,6.53-2.278,6.53-6.378c0-4.025-3.188-5.851-7.139-5.851H432.11V300.527L432.11,300.527z"/>
</g>
<g>
	<rect x="51.56" y="181.799" style="fill:#D92B2B;" width="85.51" height="17.12"/>
	<rect x="51.56" y="243.44" style="fill:#D92B2B;" width="85.51" height="17.12"/>
	<rect x="51.56" y="212.609" style="fill:#D92B2B;" width="85.51" height="17.12"/>
</g>
<g>
</g>
<g>
</g>
<g>
</g>
<g>
</g>
<g>
</g>
<g>
</g>
<g>
</g>
<g>
</g>
<g>
</g>
<g>
</g>
<g>
</g>
<g>
</g>
<g>
</g>
<g>
</g>
<g>
</g>
</svg>
