<?xml version="1.0" encoding="iso-8859-1"?>
<!-- Generator: Adobe Illustrator 19.0.0, SVG Export Plug-In . SVG Version: 6.00 Build 0)  -->
<svg version="1.1" id="Layer_1" xmlns="http://www.w3.org/2000/svg" xmlns:xlink="http://www.w3.org/1999/xlink" x="0px" y="0px"
	 viewBox="0 0 512 512" style="enable-background:new 0 0 512 512;" xml:space="preserve">
<path style="fill:#FFDC64;" d="M495.432,179.043H16.568c-4.722,0-8.551,3.829-8.551,8.551v42.756c0,4.722,3.829,8.551,8.551,8.551
	h9.121l14.936,224.036c0.898,13.476,12.091,23.947,25.597,23.947h379.558c13.505,0,24.698-10.471,25.597-23.947l14.936-224.036
	h9.121c4.722,0,8.551-3.829,8.551-8.551v-42.756C503.983,182.871,500.155,179.043,495.432,179.043z M136.284,427.027
	c0,9.445-7.658,17.102-17.102,17.102s-17.102-7.658-17.102-17.102V298.759c0-9.446,7.658-17.102,17.102-17.102
	s17.102,7.656,17.102,17.102V427.027z M204.693,427.027c0,9.445-7.658,17.102-17.102,17.102c-9.445,0-17.102-7.658-17.102-17.102
	V298.759c0-9.446,7.658-17.102,17.102-17.102c9.445,0,17.102,7.656,17.102,17.102V427.027z M273.102,427.027
	c0,9.445-7.658,17.102-17.102,17.102s-17.102-7.658-17.102-17.102V298.759c0-9.446,7.658-17.102,17.102-17.102
	s17.102,7.656,17.102,17.102V427.027z M341.511,427.027c0,9.445-7.658,17.102-17.102,17.102c-9.445,0-17.102-7.658-17.102-17.102
	V298.759c0-9.446,7.658-17.102,17.102-17.102c9.445,0,17.102,7.656,17.102,17.102V427.027z M409.921,427.027
	c0,9.445-7.658,17.102-17.102,17.102c-9.445,0-17.102-7.658-17.102-17.102V298.759c0-9.446,7.658-17.102,17.102-17.102
	c9.445,0,17.102,7.656,17.102,17.102V427.027z"/>
<g>
	<path style="fill:#FFC850;" d="M112.311,179.043c-5.016,18.296,2.514,38.402,19.694,48.323c6.495,3.75,13.881,5.731,21.362,5.731
		c15.236,0,29.43-8.193,37.044-21.381l18.862-32.672h-96.961V179.043z"/>
	<path style="fill:#FFC850;" d="M321.589,211.716c7.613,13.187,21.806,21.38,37.043,21.38c7.48,0,14.867-1.982,21.361-5.73
		c17.181-9.92,24.712-30.026,19.695-48.323h-96.963L321.589,211.716z"/>
</g>
<g>
	<path style="fill:#707487;" d="M144.832,205.149L144.832,205.149c8.18,4.722,18.639,1.92,23.362-6.259l85.511-148.11
		c4.722-8.18,1.92-18.639-6.259-23.362l0,0c-8.18-4.722-18.639-1.92-23.362,6.259l-85.511,148.11
		C133.85,189.966,136.653,200.427,144.832,205.149z"/>
	<path style="fill:#707487;" d="M367.168,205.149L367.168,205.149c-8.18,4.722-18.639,1.92-23.362-6.259l-85.511-148.11
		c-4.722-8.18-1.92-18.639,6.259-23.362l0,0c8.18-4.722,18.639-1.92,23.362,6.259l85.511,148.11
		C378.15,189.966,375.347,200.427,367.168,205.149z"/>
</g>
<path style="fill:#FFC850;" d="M484.601,264.555l1.71-25.653H25.689l14.936,224.036c0.898,13.476,12.091,23.947,25.597,23.947
	h25.597L78.957,301.122c-1.369-19.773,14.302-36.567,34.123-36.567H484.601z"/>
<path d="M495.432,171.027h-118.96L294.859,29.669c-3.354-5.812-8.771-9.967-15.252-11.703c-6.481-1.737-13.25-0.845-19.062,2.51
	c-1.663,0.96-3.171,2.106-4.546,3.38c-1.374-1.274-2.883-2.42-4.546-3.38c-5.811-3.355-12.58-4.247-19.061-2.51
	c-6.481,1.737-11.898,5.893-15.252,11.703l-81.613,141.358H16.568C7.432,171.027,0,178.459,0,187.595v42.756
	c0,9.136,7.432,16.568,16.568,16.568h1.068l14.94,216.629c1.213,17.581,15.967,31.354,33.591,31.354h379.667
	c17.623,0,32.378-13.772,33.591-31.354l14.94-216.629h1.068c9.136,0,16.568-7.432,16.568-16.568v-42.756
	C512,178.459,504.568,171.027,495.432,171.027z M268.563,34.359c1.4-0.808,2.953-1.222,4.528-1.222c0.789,0,1.584,0.104,2.367,0.313
	c2.344,0.629,4.303,2.131,5.517,4.234l85.511,148.109c2.504,4.34,1.013,9.907-3.325,12.411l0,0
	c-2.101,1.214-4.551,1.536-6.894,0.909c-2.344-0.629-4.303-2.131-5.517-4.234l-85.511-148.11c-1.213-2.101-1.536-4.549-0.908-6.894
	C264.957,37.532,266.461,35.572,268.563,34.359z M256,62.838l62.463,108.188H193.537L256,62.838z M231.026,37.684
	c1.213-2.101,3.172-3.605,5.517-4.233c2.345-0.627,4.793-0.306,6.894,0.909c2.101,1.213,3.605,3.172,4.233,5.517
	c0.629,2.344,0.306,4.792-0.907,6.894l-85.511,148.11c-1.213,2.101-3.172,3.605-5.517,4.233c-2.344,0.627-4.793,0.306-6.894-0.909
	l0,0c-4.339-2.504-5.83-8.072-3.325-12.411L231.026,37.684z M495.967,230.35c0,0.294-0.239,0.534-0.534,0.534h-34.205
	c-4.427,0-8.017,3.589-8.017,8.017s3.589,8.017,8.017,8.017h17.065l-14.864,215.526c-0.635,9.21-8.364,16.424-17.595,16.424H66.167
	c-9.231,0-16.96-7.214-17.595-16.424L33.708,246.918h393.315c4.427,0,8.017-3.589,8.017-8.017s-3.589-8.017-8.017-8.017H16.568
	c-0.295,0-0.534-0.241-0.534-0.534v-42.756c0-0.294,0.239-0.534,0.534-0.534h111.915c-1.273,9.766,3.293,19.808,12.34,25.031l0,0
	c3.87,2.235,8.165,3.377,12.518,3.377c2.182,0,4.378-0.288,6.543-0.868c6.481-1.736,11.898-5.893,15.252-11.703l9.143-15.837
	h143.439l9.143,15.837c3.354,5.812,8.771,9.967,15.252,11.703c2.164,0.58,4.36,0.868,6.543,0.868c4.353,0,8.648-1.142,12.519-3.377
	c9.047-5.224,13.613-15.265,12.34-25.031h111.916c0.295,0,0.534,0.241,0.534,0.534V230.35z"/>
<path d="M256,289.674c5.01,0,9.086,4.076,9.086,9.086c0,4.427,3.589,8.017,8.017,8.017c4.427,0,8.017-3.589,8.017-8.017
	c0-13.851-11.268-25.119-25.119-25.119c-13.851,0-25.119,11.268-25.119,25.119v128.267c0,13.851,11.268,25.119,25.119,25.119
	c13.851,0,25.119-11.268,25.119-25.119v-94.063c0-4.427-3.589-8.017-8.017-8.017c-4.427,0-8.017,3.589-8.017,8.017v94.063
	c0,5.01-4.076,9.086-9.086,9.086c-5.01,0-9.086-4.076-9.086-9.086V298.759C246.914,293.75,250.99,289.674,256,289.674z"/>
<path d="M324.409,289.674c5.01,0,9.086,4.076,9.086,9.086c0,4.427,3.589,8.017,8.017,8.017c4.427,0,8.017-3.589,8.017-8.017
	c0-13.851-11.268-25.119-25.119-25.119c-13.851,0-25.119,11.268-25.119,25.119v128.267c0,13.851,11.268,25.119,25.119,25.119
	c13.851,0,25.119-11.268,25.119-25.119v-94.063c0-4.427-3.589-8.017-8.017-8.017c-4.427,0-8.017,3.589-8.017,8.017v94.063
	c0,5.01-4.076,9.086-9.086,9.086s-9.086-4.076-9.086-9.086V298.759C315.324,293.75,319.399,289.674,324.409,289.674z"/>
<path d="M392.818,289.674c5.01,0,9.086,4.076,9.086,9.086c0,4.427,3.589,8.017,8.017,8.017c4.427,0,8.017-3.589,8.017-8.017
	c0-13.851-11.268-25.119-25.119-25.119c-13.851,0-25.119,11.268-25.119,25.119v128.267c0,13.851,11.268,25.119,25.119,25.119
	c13.851,0,25.119-11.268,25.119-25.119v-94.063c0-4.427-3.589-8.017-8.017-8.017c-4.427,0-8.017,3.589-8.017,8.017v94.063
	c0,5.01-4.076,9.086-9.086,9.086s-9.086-4.076-9.086-9.086V298.759C383.733,293.75,387.808,289.674,392.818,289.674z"/>
<path d="M119.182,289.674c5.01,0,9.086,4.076,9.086,9.086c0,4.427,3.589,8.017,8.017,8.017c4.427,0,8.017-3.589,8.017-8.017
	c0-13.851-11.268-25.119-25.119-25.119s-25.119,11.268-25.119,25.119v128.267c0,13.851,11.268,25.119,25.119,25.119
	s25.119-11.268,25.119-25.119v-94.063c0-4.427-3.589-8.017-8.017-8.017c-4.427,0-8.017,3.589-8.017,8.017v94.063
	c0,5.01-4.076,9.086-9.086,9.086c-5.01,0-9.086-4.076-9.086-9.086V298.759C110.096,293.75,114.172,289.674,119.182,289.674z"/>
<path d="M187.591,289.674c5.01,0,9.086,4.076,9.086,9.086c0,4.427,3.589,8.017,8.017,8.017s8.017-3.589,8.017-8.017
	c0-13.851-11.268-25.119-25.119-25.119c-13.851,0-25.119,11.268-25.119,25.119v128.267c0,13.851,11.268,25.119,25.119,25.119
	c13.851,0,25.119-11.268,25.119-25.119v-94.063c0-4.427-3.589-8.017-8.017-8.017s-8.017,3.589-8.017,8.017v94.063
	c0,5.01-4.076,9.086-9.086,9.086s-9.086-4.076-9.086-9.086V298.759C178.505,293.75,182.581,289.674,187.591,289.674z"/>
<g>
</g>
<g>
</g>
<g>
</g>
<g>
</g>
<g>
</g>
<g>
</g>
<g>
</g>
<g>
</g>
<g>
</g>
<g>
</g>
<g>
</g>
<g>
</g>
<g>
</g>
<g>
</g>
<g>
</g>
</svg>
