<?xml version="1.0" encoding="iso-8859-1"?>
<!-- Generator: Adobe Illustrator 19.0.0, SVG Export Plug-In . SVG Version: 6.00 Build 0)  -->
<svg version="1.1" id="Layer_1" xmlns="http://www.w3.org/2000/svg" xmlns:xlink="http://www.w3.org/1999/xlink" x="0px" y="0px"
	 viewBox="0 0 512 512" style="enable-background:new 0 0 512 512;" xml:space="preserve">
<polygon style="fill:#5C996D;" points="418.967,83.636 405.194,12.718 47.079,83.636 47.079,238.808 418.967,238.808 "/>
<path style="fill:#CCA400;" d="M466.452,337.451v122.315c0,21.734-17.782,39.517-39.517,39.517H47.079
	c-21.734,0-39.517-17.782-39.517-39.517V123.153c0-21.734,17.782-39.517,39.517-39.517h182.513h84.211h113.133
	c21.734,0,39.517,17.782,39.517,39.517v83.072v131.226H466.452z"/>
<path style="opacity:0.27;fill:#891C00;enable-background:new    ;" d="M426.936,83.636h-30.865v52.209v131.226v122.315
	c0,21.734-17.782,39.517-39.517,39.517H7.562v30.864c0,21.735,17.782,39.517,39.517,39.517h379.858
	c21.734,0,39.517-17.782,39.517-39.517V337.451V206.225v-83.073C466.452,101.418,448.67,83.636,426.936,83.636z"/>
<path style="fill:#EEBF00;" d="M355.975,206.226h138.38c5.546,0,10.083,4.537,10.083,10.083v111.057
	c0,5.546-4.537,10.083-10.083,10.083h-194.68c-5.546,0-10.083-4.537-10.083-10.083V216.309c0-5.546,4.537-10.083,10.083-10.083
	H355.975z"/>
<path style="opacity:0.12;fill:#891C00;enable-background:new    ;" d="M494.355,206.226h-25.496v85.561
	c0,5.546-4.537,10.083-10.083,10.083H289.592v25.496c0,5.546,4.537,10.083,10.083,10.083h194.68c5.546,0,10.083-4.537,10.083-10.083
	V216.309C504.438,210.764,499.901,206.226,494.355,206.226z"/>
<circle style="fill:#CCA400;" cx="359.402" cy="271.843" r="29.351"/>
<polygon style="fill:#376642;" points="191.007,83.636 380.267,47.476 388.754,83.636 "/>
<path d="M494.355,198.665h-20.341v-75.512c0-25.959-21.119-47.078-47.078-47.078h-1.734l-12.584-64.798
	c-0.383-1.973-1.537-3.714-3.205-4.835c-1.67-1.123-3.716-1.532-5.688-1.142L46.227,76.096C20.66,76.554,0,97.479,0,123.153v336.613
	c0,25.959,21.119,47.078,47.079,47.078h379.858c25.959,0,47.078-21.118,47.078-47.078V345.013h20.341
	c9.729,0,17.645-7.916,17.645-17.645V216.31C512,206.58,504.084,198.665,494.355,198.665z M496.876,327.368
	c0,1.366-1.154,2.521-2.521,2.521h-194.68c-1.366,0-2.521-1.154-2.521-2.521V216.31c0-1.366,1.154-2.521,2.521-2.521
	c4.176,0,7.562-3.385,7.562-7.562s-3.386-7.562-7.562-7.562c-9.729,0-17.645,7.916-17.645,17.645v111.058
	c0,9.729,7.916,17.645,17.645,17.645H458.89v114.754c0,17.62-14.335,31.953-31.953,31.953H47.079
	c-17.62-0.001-31.955-14.336-31.955-31.954V123.153c0-17.613,14.324-31.942,31.935-31.953c0.004,0,0.007,0,0.011,0
	c0.007,0,0.013-0.001,0.02-0.001h182.501c4.176,0,7.562-3.385,7.562-7.562s-3.386-7.562-7.562-7.562H124.194L399.218,21.61
	l10.577,54.464h-95.993c-4.176,0-7.562,3.385-7.562,7.562s3.386,7.562,7.562,7.562h105.065c0.013,0,0.027,0,0.04,0h8.027
	c17.62,0,31.953,14.335,31.953,31.953v75.512H355.975c-4.176,0-7.562,3.385-7.562,7.562s3.386,7.562,7.562,7.562h138.38
	c1.366,0,2.521,1.154,2.521,2.521V327.368z"/>
<path d="M359.401,234.924c-20.355,0-36.914,16.56-36.914,36.914s16.56,36.914,36.914,36.914s36.914-16.56,36.914-36.914
	S379.756,234.924,359.401,234.924z M359.401,293.628c-12.016,0-21.79-9.774-21.79-21.79c0-12.016,9.775-21.79,21.79-21.79
	s21.79,9.774,21.79,21.79C381.191,283.854,371.416,293.628,359.401,293.628z"/>
<path d="M119.485,116.642H71.687c-17.739,0-32.17,14.432-32.17,32.17v48.997c0,4.177,3.386,7.562,7.562,7.562
	s7.562-3.385,7.562-7.562v-48.997c0-9.399,7.647-17.046,17.046-17.046h47.799c4.176,0,7.562-3.385,7.562-7.562
	C127.048,120.027,123.662,116.642,119.485,116.642z"/>
<g>
</g>
<g>
</g>
<g>
</g>
<g>
</g>
<g>
</g>
<g>
</g>
<g>
</g>
<g>
</g>
<g>
</g>
<g>
</g>
<g>
</g>
<g>
</g>
<g>
</g>
<g>
</g>
<g>
</g>
</svg>
