<?xml version="1.0" encoding="iso-8859-1"?>
<!-- Generator: Adobe Illustrator 19.0.0, SVG Export Plug-In . SVG Version: 6.00 Build 0)  -->
<svg version="1.1" id="Layer_1" xmlns="http://www.w3.org/2000/svg" xmlns:xlink="http://www.w3.org/1999/xlink" x="0px" y="0px"
	 viewBox="0 0 512 512" style="enable-background:new 0 0 512 512;" xml:space="preserve">
<path style="fill:#FFC61B;" d="M498.144,341.263c-0.266,0-0.535-0.007-0.802-0.024l-61.793-3.571
	c-7.641-0.442-13.476-6.992-13.034-14.633c0.442-7.641,6.965-13.462,14.635-13.035l36.16,2.09l-28.364-49.168
	c-2.472-4.286-2.472-9.563,0-13.849l28.364-49.168l-187.782,10.852c-7.669,0.434-14.191-5.396-14.635-13.035
	c-0.441-7.639,5.395-14.191,13.034-14.633l213.415-12.332c5.08-0.288,9.92,2.224,12.595,6.56c2.673,4.335,2.753,9.787,0.208,14.199
	l-37.198,64.483l37.2,64.483c2.546,4.412,2.464,9.864-0.208,14.199C507.404,338.787,502.93,341.263,498.144,341.263z"/>
<polygon style="fill:#FEE187;" points="131.829,255.999 205.19,314.346 205.19,398.975 13.857,255.999 205.19,113.023 
	205.19,197.653 "/>
<path style="fill:#FFC61B;" d="M369.132,306.072l-164.654-9.999l-50.386-40.074l59.726-47.501c3.305-2.629,5.231-6.622,5.231-10.846
	v-84.629c0-5.245-2.961-10.04-7.649-12.388c-4.687-2.347-10.301-1.851-14.503,1.289L5.562,244.898
	C2.062,247.515,0,251.628,0,255.999s2.062,8.485,5.562,11.101l191.333,142.976c2.442,1.825,5.36,2.758,8.296,2.758
	c2.116,0,4.243-0.485,6.207-1.469c4.688-2.35,7.649-7.145,7.649-12.388v-74.252l148.484,9.017c0.273,0.015,0.543,0.024,0.812,0.024
	c7.288,0,13.396-5.69,13.823-13.059C382.607,313.064,376.772,306.514,369.132,306.072z M37.007,255.999l154.328-115.322v50.292
	l-68.13,54.186c-3.305,2.629-5.231,6.622-5.231,10.846c0,4.224,1.926,8.216,5.231,10.846c0,0,65.982,53.767,68.13,54.919v49.559
	L37.007,255.999z"/>
<g>
</g>
<g>
</g>
<g>
</g>
<g>
</g>
<g>
</g>
<g>
</g>
<g>
</g>
<g>
</g>
<g>
</g>
<g>
</g>
<g>
</g>
<g>
</g>
<g>
</g>
<g>
</g>
<g>
</g>
</svg>
