<svg xmlns="http://www.w3.org/2000/svg" version="1.1" xmlns:xlink="http://www.w3.org/1999/xlink" xmlns:svgjs="http://svgjs.dev/svgjs" width="2000" height="1247" viewBox="0 0 2000 1247"><g transform="matrix(1,0,0,1,-1.2121212121212466,0.504858299595071)"><svg viewBox="0 0 396 247" data-background-color="#fba00e" preserveAspectRatio="xMidYMid meet" height="1247" width="2000" xmlns="http://www.w3.org/2000/svg" xmlns:xlink="http://www.w3.org/1999/xlink"><defs></defs><g id="tight-bounds" transform="matrix(1,0,0,1,0.2400000000000091,-0.09999999999999432)"><svg viewBox="0 0 395.52 247.2" height="247.2" width="395.52"><g><svg></svg></g><g><svg viewBox="0 0 395.52 247.2" height="247.2" width="395.52"><g><path d="M147.437 247.2v-5.297l21.189-5.297 0-31.374 58.268 0 0 31.374 21.189 5.297v5.297zM168.626 8.829h-40.612c0 11.418-2.456 22.465-7.367 33.139l-26.181 0v-41.968h206.588v41.968l-26.509 0c-4.693-10.386-7.04-21.433-7.039-33.139h-40.612l0 33.139-58.268 0z" fill="#1f1f1f" data-fill-palette-color="tertiary"></path></g><g transform="matrix(1,0,0,1,0,54.440252859139974)"><svg viewBox="0 0 395.52 138.31949428172004" height="138.31949428172004" width="395.52"><g><svg viewBox="0 0 395.52 138.31949428172004" height="138.31949428172004" width="395.52"><g transform="matrix(1,0,0,1,0,85.48699656900274)"><svg viewBox="0 0 395.52 52.832497712717284" height="52.832497712717284" width="395.52"><g><svg viewBox="0 0 395.52 52.832497712717284" height="52.832497712717284" width="395.52"><g><svg viewBox="0 0 395.52 52.832497712717284" height="52.832497712717284" width="395.52"><g transform="matrix(1,0,0,1,0,0)"><svg width="395.52" viewBox="1.25 -35.75 273.2300109863281 36.5" height="52.832497712717284" data-palette-color="#1f1f1f"><path d="M8.75 0L8.75-0.75 11.75-1.5 11.75-33.75 6-33.75Q6-30.7 4.35-27.9L4.35-27.9Q3.65-26.75 2.75-26L2.75-26 1.25-26 1.25-35 30.5-35 30.5-26 29-26Q28.05-26.75 27.35-27.9L27.35-27.9Q25.75-30.6 25.75-33.75L25.75-33.75 20-33.75 20-1.5 23-0.75 23 0 8.75 0ZM32.75 0L32.75-0.75 35.75-1.5 35.75-23.5 32.75-24.25 32.75-25 39.25-25Q43.75-25 43.75-20.5L43.75-20.5 43.75-1.5 46.75-0.75 46.75 0 32.75 0ZM39.25-28Q37.75-28 36.75-29 35.75-30 35.75-31.5L35.75-31.5Q35.75-33 36.75-34 37.75-35 39.25-35L39.25-35Q40.75-35 41.75-34 42.75-33 42.75-31.5L42.75-31.5Q42.75-30 41.75-29 40.75-28 39.25-28L39.25-28ZM49.75 0L49.75-0.75 52.75-1.5 52.75-23.5 49.75-24.25 49.75-25 54.25-25Q57.2-25 58.9-23.1L58.9-23.1Q59.55-22.35 60-21.25L60-21.25Q60.75-22.65 61.6-23.5L61.6-23.5Q63.85-25.75 66.75-25.75L66.75-25.75Q69.65-25.75 71.84-24.48 74.05-23.2 75.25-21L75.25-21Q76-22.45 76.84-23.35L76.84-23.35Q79.15-25.75 82-25.75L82-25.75Q84.65-25.75 86.77-24.65 88.9-23.55 90.07-21.65 91.25-19.75 91.25-17.5L91.25-17.5 91.25-1.5 94.25-0.75 94.25 0 87.75 0Q83.25 0 83.25-4.5L83.25-4.5 83.25-17.5Q83.25-20.75 82.25-22.38 81.25-24 80-24L80-24Q78.55-24 77.05-22L77.05-22Q76.45-21.05 76-20L76-20 76-1.5 79-0.75 79 0 65 0 65-0.75 68-1.5 68-17.5Q68-20.75 67-22.38 66-24 64.75-24L64.75-24Q63.3-24 61.8-22L61.8-22Q61.2-21.05 60.75-20L60.75-20 60.75-1.5 63.75-0.75 63.75 0 49.75 0ZM110.74 0.75Q104.34 0.75 100.79-2.78 97.24-6.3 97.24-12.5L97.24-12.5Q97.24-16.55 98.79-19.55 100.34-22.55 103.12-24.15 105.89-25.75 109.49-25.75L109.49-25.75Q113.09-25.75 115.82-24.4 118.54-23.05 120.02-20.78 121.49-18.5 121.49-15.75L121.49-15.75Q121.49-14.5 121.24-13.6L121.24-13.6 120.99-12.75Q118.84-12.3 116.34-12L116.34-12Q111.09-11.25 105.74-11.25L105.74-11.25Q105.74-5.45 107.34-2.98 108.94-0.5 111.74-0.5L111.74-0.5Q113.69-0.5 115.37-1.43 117.04-2.35 118.02-3.88 118.99-5.4 118.99-7L118.99-7 120.24-7Q120.24-5 119.04-3.2 117.84-1.4 115.69-0.33 113.54 0.75 110.74 0.75L110.74 0.75ZM105.74-12.5Q108.94-12.5 110.94-12.75L110.94-12.75Q111.79-12.8 112.74-13L112.74-13Q112.79-13.25 112.99-14.1L112.99-14.1Q113.24-15.35 113.24-16.75L113.24-16.75Q113.24-20.9 112.14-22.83 111.04-24.75 109.49-24.75L109.49-24.75Q105.74-24.75 105.74-12.5L105.74-12.5ZM124.74 0L124.74-2.25Q124.74-5.2 125.92-7.63 127.09-10.05 128.79-11.85 130.49-13.65 133.24-16.1L133.24-16.1Q135.79-18.35 137.24-19.88 138.69-21.4 139.69-23.33 140.69-25.25 140.69-27.5L140.69-27.5Q140.69-30.8 139.09-32.65 137.49-34.5 134.94-34.5L134.94-34.5Q133.49-34.5 131.99-34.1L131.99-34.1 130.94-33.75 130.94-25.75 130.29-25.6Q129.49-25.5 128.94-25.5L128.94-25.5Q127.24-25.5 126.22-26.53 125.19-27.55 125.19-29.25L125.19-29.25Q125.19-30.85 126.42-32.35 127.64-33.85 130.06-34.8 132.49-35.75 135.94-35.75L135.94-35.75Q142.69-35.75 145.94-33.05 149.19-30.35 149.19-25.5L149.19-25.5Q149.19-22.45 147.62-20.25 146.04-18.05 143.77-16.6 141.49-15.15 137.69-13.3L137.69-13.3Q134.49-11.75 132.52-10.58 130.54-9.4 128.87-7.75 127.19-6.1 126.49-4L126.49-4 144.99-4Q145.34-6.7 146.69-8.5L146.69-8.5Q147.24-9.35 147.99-10L147.99-10 149.49-10 149.49 0 124.74 0ZM154.49 0L154.49-0.75 157.49-1.5 157.49-33.5 154.49-34.25 154.49-35 167.74-35Q176.24-35 179.99-32.43 183.74-29.85 183.74-25.25L183.74-25.25Q183.74-22.15 182.09-20.23 180.44-18.3 177.84-17.35L177.84-17.35Q175.09-16.3 171.99-16.25L171.99-16.25 171.99-16Q173.84-15.9 175.24-15.45L175.24-15.45Q178.74-14.35 179.99-11.5L179.99-11.5 184.49-1.5 186.99-0.75 186.99 0 179.99 0Q175.89 0 173.99-4.25L173.99-4.25 168.99-15.5 165.74-15.5 165.74-1.5 169.24-0.75 169.24 0 154.49 0ZM165.74-16.75L167.74-16.75Q171.24-16.75 173.24-18.95 175.24-21.15 175.24-25.25L175.24-25.25Q175.24-29.35 173.24-31.55 171.24-33.75 167.74-33.75L167.74-33.75 165.74-33.75 165.74-16.75ZM202.49 0.75Q196.09 0.75 192.54-2.78 188.99-6.3 188.99-12.5L188.99-12.5Q188.99-16.55 190.54-19.55 192.09-22.55 194.86-24.15 197.64-25.75 201.24-25.75L201.24-25.75Q204.84-25.75 207.56-24.4 210.29-23.05 211.76-20.78 213.24-18.5 213.24-15.75L213.24-15.75Q213.24-14.5 212.99-13.6L212.99-13.6 212.74-12.75Q210.59-12.3 208.09-12L208.09-12Q202.84-11.25 197.49-11.25L197.49-11.25Q197.49-5.45 199.09-2.98 200.69-0.5 203.49-0.5L203.49-0.5Q205.44-0.5 207.11-1.43 208.79-2.35 209.76-3.88 210.74-5.4 210.74-7L210.74-7 211.99-7Q211.99-5 210.79-3.2 209.59-1.4 207.44-0.33 205.29 0.75 202.49 0.75L202.49 0.75ZM197.49-12.5Q200.69-12.5 202.69-12.75L202.69-12.75Q203.54-12.8 204.49-13L204.49-13Q204.54-13.25 204.74-14.1L204.74-14.1Q204.99-15.35 204.99-16.75L204.99-16.75Q204.99-20.9 203.89-22.83 202.79-24.75 201.24-24.75L201.24-24.75Q197.49-24.75 197.49-12.5L197.49-12.5ZM226.23 0.75Q221.78 0.75 219.38-1.15 216.98-3.05 216.98-6L216.98-6Q216.98-7.95 217.83-9.85L217.83-9.85Q218.18-10.75 218.73-11.5L218.73-11.5Q220.78-12 223.18-12.4L223.18-12.4Q228.58-13.3 232.73-13.5L232.73-13.5 232.73-15Q232.73-20.55 231.38-22.65 230.03-24.75 227.23-24.75L227.23-24.75Q226.18-24.75 225.43-24.5L225.43-24.5 224.73-24.25 224.73-16.75 224.08-16.6Q223.28-16.5 222.73-16.5L222.73-16.5Q221.03-16.5 220.01-17.53 218.98-18.55 218.98-20.25L218.98-20.25Q218.98-22.55 221.31-24.15 223.63-25.75 228.23-25.75L228.23-25.75Q232.13-25.75 234.96-24.38 237.78-23 239.26-20.58 240.73-18.15 240.73-15L240.73-15 240.73-1.5 243.73-0.75 243.73 0 239.23 0Q236.23 0 234.58-1.85L234.58-1.85Q233.88-2.6 233.48-3.75L233.48-3.75Q232.78-2.5 231.83-1.5L231.83-1.5Q229.58 0.75 226.23 0.75L226.23 0.75ZM228.23-1Q230.08-1 231.58-3L231.58-3Q232.13-3.75 232.73-5L232.73-5 232.73-12.25Q230.43-12.25 228.33-12L228.33-12Q226.78-11.8 226.23-11.75L226.23-11.75Q225.98-11.2 225.73-10.25L225.73-10.25Q225.23-8.35 225.23-6.5L225.23-6.5Q225.23-3.7 226.08-2.35 226.93-1 228.23-1L228.23-1ZM256.98 0.75Q254.03 0.75 251.73-0.78 249.43-2.3 248.08-5.28 246.73-8.25 246.73-12.5L246.73-12.5Q246.73-18.9 249.71-22.33 252.68-25.75 257.73-25.75L257.73-25.75Q260.13-25.75 261.93-24.75L261.93-24.75Q262.68-24.4 263.48-23.75L263.48-23.75 263.48-33.5 260.48-34.25 260.48-35 266.98-35Q271.48-35 271.48-30.5L271.48-30.5 271.48-1.5 274.48-0.75 274.48 0 269.98 0Q266.98 0 265.33-1.85L265.33-1.85Q264.63-2.6 264.23-3.75L264.23-3.75Q263.58-2.5 262.58-1.5L262.58-1.5Q260.33 0.75 256.98 0.75L256.98 0.75ZM258.98-1Q260.83-1 262.33-3L262.33-3Q262.88-3.75 263.48-5L263.48-5 263.48-22.25Q262.93-22.8 262.33-23.25L262.33-23.25Q260.98-24.25 259.73-24.25L259.73-24.25Q257.58-24.25 256.41-21.75 255.23-19.25 255.23-12.5L255.23-12.5Q255.23-6.05 256.31-3.53 257.38-1 258.98-1L258.98-1Z" opacity="1" transform="matrix(1,0,0,1,0,0)" fill="#1f1f1f" class="undefined-text-0" data-fill-palette-color="primary" id="text-0"></path></svg></g></svg></g></svg></g></svg></g><g transform="matrix(1,0,0,1,161.25274408051234,0)"><svg viewBox="0 0 73.0145118389753 73.0145118389753" height="73.0145118389753" width="73.0145118389753"><g><svg></svg></g><g id="icon-0"><svg viewBox="0 0 73.0145118389753 73.0145118389753" height="73.0145118389753" width="73.0145118389753"><g><path d="M21.904 73.015c-12.097 0-21.904-9.807-21.904-21.905v-29.206c0-12.097 9.807-21.904 21.904-21.904h29.206c12.097 0 21.904 9.807 21.905 21.904v29.206c0 12.097-9.807 21.904-21.905 21.905z" fill="#1f1f1f" data-fill-palette-color="accent"></path></g><g transform="matrix(1,0,0,1,14.37105771196267,14.602902367795064)"><svg viewBox="0 0 44.272396415049954 43.80870710338517" height="43.80870710338517" width="44.272396415049954"><g><svg xmlns="http://www.w3.org/2000/svg" xmlns:xlink="http://www.w3.org/1999/xlink" version="1.1" x="0" y="0" viewBox="6.8130035400390625 7.290999889373779 86.40799713134766 85.50299835205078" style="enable-background:new 0 0 100 100;" xml:space="preserve" height="43.80870710338517" width="44.272396415049954" class="icon-x-0" data-fill-palette-color="quaternary" id="x-0"><g fill="#ffbe79" data-fill-palette-color="quaternary"><g fill="#ffbe79" data-fill-palette-color="quaternary"><path d="M49.983 7.291c-28.781 0-43.17 14.251-43.17 42.752s14.389 42.751 43.17 42.751c28.825 0 43.238-14.25 43.238-42.751S78.808 7.291 49.983 7.291zM75.204 76.06c-5.288 5.497-13.694 8.246-25.221 8.246-11.436 0-19.81-2.748-25.12-8.246-5.31-5.496-7.965-14.169-7.965-26.017 0-11.849 2.655-20.522 7.965-26.018 5.31-5.497 13.683-8.246 25.12-8.246 11.527 0 19.933 2.749 25.221 8.246 5.287 5.496 7.931 14.169 7.931 26.018C83.135 61.891 80.491 70.563 75.204 76.06z" fill="#ffbe79" data-fill-palette-color="quaternary"></path><path d="M63.001 29.522L50.328 42.194l-7.76-7.76c-2.036-2.036-5.336-2.036-7.372 0-2.036 2.036-2.036 5.336 0 7.372l11.365 11.365c1.038 1.038 2.406 1.544 3.767 1.523 1.361 0.021 2.728-0.484 3.767-1.523l16.277-16.277c2.036-2.036 2.036-5.336 0-7.372C68.337 27.486 65.036 27.486 63.001 29.522z" fill="#ffbe79" data-fill-palette-color="quaternary"></path><path d="M73.966 49.932v0.111c0 0.208-0.003 0.415-0.008 0.622-0.041 1.744 1.338 3.191 3.081 3.232 0.026 0.001 0.052 0.001 0.077 0.001 1.709 0 3.115-1.365 3.156-3.082 0.006-0.257 0.009-0.515 0.009-0.773v-0.111c0-1.744-1.414-3.158-3.158-3.158S73.966 48.188 73.966 49.932z" fill="#ffbe79" data-fill-palette-color="quaternary"></path><path d="M22.99 46.243c-1.728-0.032-3.189 1.341-3.23 3.084-0.006 0.238-0.008 0.476-0.008 0.715v0.055c0 1.744 1.414 3.13 3.158 3.13s3.158-1.442 3.158-3.185c0-0.19 0.002-0.38 0.007-0.57C26.114 47.729 24.733 46.283 22.99 46.243z" fill="#ffbe79" data-fill-palette-color="quaternary"></path><path d="M49.934 26.093h0.083c0.181 0 0.363 0.002 0.543 0.006 0.025 0.001 0.049 0.001 0.073 0.001 1.711 0 3.117-1.367 3.156-3.086 0.039-1.744-1.342-3.189-3.086-3.228-0.228-0.005-0.456-0.008-0.686-0.008h-0.083c-1.744 0-3.158 1.414-3.158 3.158S48.19 26.093 49.934 26.093z" fill="#ffbe79" data-fill-palette-color="quaternary"></path><path d="M50.017 73.992c-0.199 0-0.398-0.002-0.596-0.007-1.726-0.049-3.19 1.339-3.231 3.083-0.041 1.743 1.34 3.19 3.083 3.231 0.248 0.006 0.496 0.009 0.744 0.009h0.027c1.744 0 3.144-1.414 3.144-3.158S51.761 73.992 50.017 73.992z" fill="#ffbe79" data-fill-palette-color="quaternary"></path></g></g></svg></g></svg></g></svg></g></svg></g><g></g></svg></g></svg></g></svg></g></svg><rect width="395.52" height="247.2" fill="none" stroke="none" visibility="hidden"></rect></g></svg></g></svg>