<?xml version="1.0" encoding="iso-8859-1"?>
<!-- Generator: Adobe Illustrator 19.0.0, SVG Export Plug-In . SVG Version: 6.00 Build 0)  -->
<svg version="1.1" id="Layer_1" xmlns="http://www.w3.org/2000/svg" xmlns:xlink="http://www.w3.org/1999/xlink" x="0px" y="0px"
	 viewBox="0 0 512 512" style="enable-background:new 0 0 512 512;" xml:space="preserve">
<path style="fill:#FFC61B;" d="M13.855,341.264c-4.786,0-9.259-2.476-11.792-6.582c-2.673-4.335-2.753-9.787-0.208-14.199
	l37.2-64.483l-37.2-64.483c-2.546-4.412-2.464-9.864,0.208-14.199c2.674-4.335,7.516-6.848,12.595-6.56l213.415,12.332
	c7.641,0.442,13.476,6.994,13.034,14.633c-0.442,7.641-6.969,13.466-14.635,13.035L38.69,199.905l28.364,49.168
	c2.472,4.286,2.472,9.563,0,13.849l-28.363,49.169l36.16-2.09c7.684-0.442,14.191,5.396,14.635,13.035
	c0.441,7.641-5.395,14.191-13.034,14.633l-61.793,3.571C14.39,341.257,14.122,341.264,13.855,341.264z"/>
<polygon style="fill:#FEE187;" points="380.171,255.999 306.809,314.346 306.809,398.975 498.143,255.999 306.809,113.023 
	306.809,197.654 "/>
<path style="fill:#FFC61B;" d="M506.438,244.898L315.105,101.924c-4.203-3.14-9.812-3.638-14.504-1.289
	c-4.688,2.35-7.649,7.145-7.649,12.388v84.63c0,4.224,1.926,8.216,5.231,10.846l59.726,47.501l-50.386,40.074l-164.654,9.998
	c-7.641,0.442-13.476,6.992-13.034,14.633c0.427,7.369,6.534,13.059,13.823,13.059c0.267,0,0.54-0.008,0.812-0.024l148.484-9.017
	v74.252c0,5.245,2.961,10.04,7.649,12.388c1.965,0.984,4.091,1.469,6.207,1.469c2.936,0,5.856-0.933,8.296-2.758L506.438,267.1
	c3.5-2.616,5.562-6.73,5.562-11.101C512,251.629,509.938,247.516,506.438,244.898z M320.666,371.322v-49.558
	c2.148-1.15,68.13-54.919,68.13-54.919c3.306-2.629,5.231-6.622,5.231-10.846c0-4.224-1.926-8.216-5.231-10.846l-68.13-54.186
	v-50.292l154.326,115.322L320.666,371.322z"/>
<g>
</g>
<g>
</g>
<g>
</g>
<g>
</g>
<g>
</g>
<g>
</g>
<g>
</g>
<g>
</g>
<g>
</g>
<g>
</g>
<g>
</g>
<g>
</g>
<g>
</g>
<g>
</g>
<g>
</g>
</svg>
