<?xml version="1.0" encoding="iso-8859-1"?>
<!-- Uploaded to: SVG Repo, www.svgrepo.com, Generator: SVG Repo Mixer Tools -->
<svg version="1.1" id="Layer_1" xmlns="http://www.w3.org/2000/svg" xmlns:xlink="http://www.w3.org/1999/xlink" 
	 viewBox="0 0 491.52 491.52" xml:space="preserve">
<path style="fill:#2F4859;" d="M470.923,473.646H20.596C9.221,473.646,0,464.425,0,453.05v17.874
	c0,11.374,9.221,20.596,20.596,20.596h450.327c11.375,0,20.597-9.222,20.597-20.596V453.05
	C491.52,464.425,482.298,473.646,470.923,473.646z"/>
<path style="fill:#64798A;" d="M485.486,74.398L417.121,6.033C413.259,2.17,408.021,0,402.557,0H20.596C9.221,0,0,9.221,0,20.595
	v17.874V453.05c0,11.375,9.221,20.596,20.596,20.596h450.327c11.375,0,20.597-9.221,20.597-20.596V106.835V88.961
	C491.52,83.499,489.349,78.261,485.486,74.398z"/>
<rect x="85.642" y="260.623" style="fill:#FFFFFF;" width="320.256" height="213.023"/>
<g>
	<rect x="113.869" y="295.47" style="fill:#E1E6E9;" width="263.731" height="13.404"/>
	<rect x="113.869" y="338.79" style="fill:#E1E6E9;" width="263.731" height="13.404"/>
	<rect x="113.869" y="382.105" style="fill:#E1E6E9;" width="263.731" height="13.404"/>
	<rect x="113.869" y="425.369" style="fill:#E1E6E9;" width="263.731" height="13.404"/>
</g>
<path style="fill:#3A556A;" d="M105.166,17.874v146.971c0,8.84,7.165,16.007,16.006,16.007h249.174
	c8.841,0,16.006-7.166,16.006-16.007V17.874H105.166z M346.021,152.274h-40.056V46.449h40.056V152.274z"/>
<path style="fill:#E1E6E9;" d="M105.166,0v146.971c0,8.84,7.165,16.007,16.006,16.007h249.174c8.841,0,16.006-7.166,16.006-16.007V0
	H105.166z M346.021,134.401h-40.056V28.576h40.056V134.401z"/>
</svg>