<?xml version="1.0" standalone="no"?>
<!DOCTYPE svg PUBLIC "-//W3C//DTD SVG 20010904//EN"
 "http://www.w3.org/TR/2001/REC-SVG-20010904/DTD/svg10.dtd">
<svg version="1.0" xmlns="http://www.w3.org/2000/svg"
 width="512.000000pt" height="512.000000pt" viewBox="0 0 512.000000 512.000000"
 preserveAspectRatio="xMidYMid meet">

<g transform="translate(0.000000,512.000000) scale(0.100000,-0.100000)"
fill="#000000" stroke="none">
<path d="M2330 5109 c-305 -29 -646 -126 -910 -259 -426 -215 -798 -559 -1046
-966 -88 -146 -131 -232 -197 -400 -271 -684 -228 -1449 119 -2114 l66 -125
-181 -620 c-99 -341 -179 -621 -178 -622 1 -1 281 79 622 178 l620 181 125
-66 c665 -347 1430 -390 2114 -119 168 66 254 109 400 197 280 171 525 394
726 661 284 378 455 826 500 1310 41 446 -55 949 -260 1355 -138 273 -356 559
-576 755 -432 384 -931 602 -1499 655 -125 11 -320 11 -445 -1z m-683 -910
c38 -14 551 -525 569 -566 17 -38 18 -91 4 -129 -6 -15 -52 -71 -103 -124
-115 -120 -140 -168 -145 -275 -5 -118 18 -172 121 -282 45 -47 247 -247 448
-443 337 -329 370 -359 425 -379 47 -18 75 -22 139 -19 108 5 154 29 281 150
89 84 107 97 146 103 93 14 100 8 390 -282 147 -148 272 -281 277 -296 30 -79
0 -146 -115 -257 -60 -57 -104 -90 -147 -110 -221 -99 -573 -91 -910 20 -679
226 -1410 917 -1688 1596 -102 250 -148 555 -119 794 22 178 63 270 172 385
107 114 175 144 255 114z"/>
</g>
</svg>
